<?xml version="1.0" standalone="no"?>
<!DOCTYPE svg PUBLIC "-//W3C//DTD SVG 20010904//EN"
 "http://www.w3.org/TR/2001/REC-SVG-20010904/DTD/svg10.dtd">
<svg version="1.0" xmlns="http://www.w3.org/2000/svg"
 width="634.000000pt" height="159.000000pt" viewBox="0 0 634.000000 159.000000"
 preserveAspectRatio="xMidYMid meet">
<metadata>
Created by potrace 1.16, written by Peter Selinger 2001-2019
</metadata>
<g transform="translate(0.000000,159.000000) scale(0.100000,-0.100000)"
fill="#000000" stroke="none">
<path d="M97 1504 c-4 -4 -7 -65 -7 -135 l0 -128 48 -3 47 -3 0 -420 0 -420
-47 -3 -48 -3 0 -135 0 -135 133 3 132 3 3 43 3 42 419 0 419 0 3 -42 3 -43
133 -3 132 -3 0 136 0 135 -45 0 c-29 0 -45 4 -46 13 -1 23 -1 123 0 480 l1
357 45 0 46 0 -3 133 -3 132 -120 1 c-66 0 -126 -2 -132 -4 -8 -3 -13 -23 -13
-53 l0 -49 -419 0 -420 0 -3 53 -3 52 -126 3 c-69 1 -128 -1 -132 -4z m1103
-214 l0 -49 58 -3 57 -3 0 -420 0 -420 -57 -3 -58 -3 0 -59 0 -60 -420 0 -420
0 0 60 0 59 -57 3 -57 3 1 70 c1 39 2 229 2 423 l1 352 55 0 55 0 0 50 0 50
420 0 420 0 0 -50z"/>
<path d="M4050 846 l0 -296 35 0 35 0 -2 293 -3 292 -32 3 -33 3 0 -295z"/>
<path d="M1660 825 l0 -275 180 0 180 0 0 30 0 30 -140 0 -140 0 0 95 0 94
118 3 117 3 0 30 0 30 -117 3 -118 3 0 84 0 85 135 0 135 0 0 30 0 30 -175 0
-175 0 0 -275z"/>
<path d="M2588 960 c-44 -13 -85 -48 -96 -80 -11 -30 -11 -30 27 -30 30 0 40
4 44 20 3 11 17 24 32 30 69 26 135 -5 135 -64 l0 -33 -74 -6 c-121 -9 -176
-51 -176 -137 0 -36 6 -53 25 -74 46 -50 118 -60 185 -26 47 24 50 24 50 5 0
-11 11 -15 39 -15 l40 0 -10 32 c-5 18 -9 90 -9 161 0 151 -10 179 -73 208
-44 19 -93 23 -139 9z m140 -262 c-3 -47 -7 -55 -37 -75 -77 -52 -163 -4 -135
76 11 31 58 50 127 50 l48 1 -3 -52z"/>
<path d="M3055 963 c-11 -3 -32 -14 -47 -25 -28 -19 -28 -19 -28 1 0 17 -6 21
-35 21 l-35 0 0 -205 0 -205 35 0 35 0 0 149 c0 134 2 151 20 174 42 53 139
44 159 -15 6 -17 11 -93 11 -169 l0 -139 35 0 35 0 0 149 c0 141 1 151 23 176
15 18 36 28 64 32 35 5 45 2 67 -20 26 -26 26 -28 26 -182 l0 -155 35 0 35 0
0 168 c0 175 -4 194 -50 229 -43 34 -140 24 -196 -19 -25 -20 -27 -20 -36 -4
-19 35 -94 53 -153 39z"/>
<path d="M3730 959 c-13 -6 -33 -17 -42 -26 -17 -15 -18 -15 -18 5 0 18 -6 22
-35 22 l-35 0 0 -285 0 -285 35 0 35 0 0 95 0 95 40 -20 c80 -41 163 -18 208
59 24 41 27 56 27 136 0 80 -3 95 -27 136 -39 67 -119 95 -188 68z m112 -88
c31 -34 44 -98 34 -166 -14 -87 -90 -129 -165 -90 -38 19 -41 30 -41 144 0 88
2 99 23 118 30 28 46 33 87 28 22 -3 45 -15 62 -34z"/>
<path d="M4523 960 c-142 -44 -166 -301 -36 -390 29 -20 49 -25 99 -25 70 0
102 17 142 75 31 47 29 60 -13 60 -25 0 -35 -4 -35 -15 0 -30 -50 -65 -92 -65
-87 0 -128 77 -109 201 16 101 108 144 172 80 16 -16 29 -37 29 -45 0 -12 10
-16 35 -16 27 0 35 4 35 19 0 24 -38 79 -72 104 -31 23 -107 31 -155 17z"/>
<path d="M5110 948 c-172 -87 -128 -388 58 -406 67 -6 114 11 156 58 56 62 71
154 41 241 -19 54 -49 86 -100 110 -54 25 -101 24 -155 -3z m162 -79 c31 -37
43 -92 33 -157 -15 -98 -114 -145 -183 -87 -71 60 -57 242 21 275 42 18 100 4
129 -31z"/>
<path d="M5974 951 c-51 -24 -74 -55 -74 -102 0 -58 29 -85 125 -114 93 -29
115 -44 115 -80 0 -33 -36 -55 -90 -55 -48 0 -78 21 -93 63 -7 17 -61 25 -71
9 -2 -4 4 -27 14 -50 59 -131 310 -98 310 40 0 59 -37 90 -143 123 -75 23 -88
30 -93 52 -9 35 6 56 49 67 45 11 95 -8 108 -41 7 -18 16 -23 44 -23 21 0 35
5 35 13 0 20 -38 75 -64 92 -39 26 -124 29 -172 6z"/>
<path d="M2076 948 c4 -7 34 -53 66 -102 l59 -90 -66 -98 c-36 -54 -65 -100
-65 -103 0 -3 17 -5 38 -5 36 0 40 3 84 75 33 55 48 72 55 63 5 -7 27 -41 47
-75 36 -60 39 -63 77 -63 21 0 39 2 39 5 0 3 -30 48 -67 101 -76 110 -77 85
15 224 l50 75 -30 3 c-44 5 -51 0 -94 -72 -21 -36 -42 -66 -46 -66 -4 0 -26
32 -49 70 -40 68 -43 70 -81 70 -29 0 -37 -3 -32 -12z"/>
<path d="M4240 755 l0 -205 35 0 35 0 0 205 0 205 -35 0 -35 0 0 -205z"/>
<path d="M4840 755 l0 -205 35 0 35 0 0 205 0 205 -35 0 -35 0 0 -205z"/>
<path d="M5470 799 c0 -126 3 -168 16 -194 29 -62 123 -84 197 -46 29 15 37
16 37 5 0 -9 12 -14 35 -14 l35 0 0 205 0 205 -35 0 -35 0 0 -152 c0 -84 -4
-158 -8 -164 -34 -49 -119 -59 -151 -18 -19 24 -21 40 -21 180 l0 154 -35 0
-35 0 0 -161z"/>
</g>
</svg>
